# xmcd CD database file
#
# Track frame offsets:
#	200
#	11790
#	23487
#	35207
#	45720
#	56370
#	67752
#	79175
#	91162
#	102967
#	114147
#	124065
#	135632
#	146695
#	157947
#	169367
#	180792
#	191235
#
# Disc length: 2744 seconds
#
# Revision: 0
# Processed by: cddbd v1.5.1PL0 Copyright (c) Steve Scherf et al.
# Submitted via: CDex 1.51
#
DISCID=e40ab612
DTITLE=Patsy Cline - Golden Classics
DYEAR=1994
DGENRE=Country
TTITLE0=Walkin After Midnight
TTITLE1=Lonely Street
TTITLE2=Crazy Dreams
TTITLE3=Too Many Secrets
TTITLE4=Lovesick Blues
TTITLE5=Three Cigarettes In An Ashtray
TTITLE6=Just Out Of Reach
TTITLE7=Let The Teardrops Fall
TTITLE8=A Poor Man's Roses
TTITLE9=Stop The World
TTITLE10=I'm Blue Again
TTITLE11=That Wonderful Someone
TTITLE12=I Cried All The Way To The Alter
TTITLE13=Hidin' out
TTITLE14=Hungry For Love
TTITLE15=Cry Not For Me
TTITLE16=Walkin' Dream
TTITLE17=A Church, A Courtroom And Then Goodbye
EXTD=YEAR: 1994
EXTT0=
EXTT1=
EXTT2=
EXTT3=
EXTT4=
EXTT5=
EXTT6=
EXTT7=
EXTT8=
EXTT9=
EXTT10=
EXTT11=
EXTT12=
EXTT13=
EXTT14=
EXTT15=
EXTT16=
EXTT17=
PLAYORDER=
